Encoding ROI two-pass+aux /Users/adpena/Projects/pact/workspace/upstream/comma_video_compression_challenge/videos/0.mkv -> /Users/adpena/Projects/pact/submissions/robust_current/archive/0/base.mkv + /Users/adpena/Projects/pact/submissions/robust_current/archive/0/roi.mkv + /Users/adpena/Projects/pact/submissions/robust_current/archive/0/roi2.mkv
ffmpeg version 8.1 Copyright (c) 2000-2026 the FFmpeg developers
  built with Apple clang version 17.0.0 (clang-1700.6.4.2)
  configuration: --prefix=/opt/homebrew/Cellar/ffmpeg/8.1 --enable-shared --enable-pthreads --enable-version3 --cc=clang --host-cflags= --host-ldflags= --enable-ffplay --enable-gpl --enable-libsvtav1 --enable-libopus --enable-libx264 --enable-libmp3lame --enable-libdav1d --enable-libvpx --enable-libx265 --enable-openssl --enable-videotoolbox --enable-audiotoolbox --enable-neon
  libavutil      60. 26.100 / 60. 26.100
  libavcodec     62. 28.100 / 62. 28.100
  libavformat    62. 12.100 / 62. 12.100
  libavdevice    62.  3.100 / 62.  3.100
  libavfilter    11. 14.100 / 11. 14.100
  libswscale      9.  5.100 /  9.  5.100
  libswresample   6.  3.100 /  6.  3.100
Input #0, matroska,webm, from '/Users/adpena/Projects/pact/workspace/upstream/comma_video_compression_challenge/videos/0.mkv':
  Metadata:
    SEGMENT         : b0c9d2329ad1606b|2018-07-27--06-03-57/10/video.hevc
    ENCODER         : Lavf60.16.100
  Duration: 00:01:00.00, start: 0.000000, bitrate: 5006 kb/s
  Stream #0:0: Video: hevc (Main), yuv420p(tv), 1164x874, 20 fps, 20 tbr, 1k tbn
    Metadata:
      DURATION        : 00:01:00.000000000
Stream mapping:
  Stream #0:0 (hevc) -> scale:default
  split -> Stream #0:0 (libx265)
  crop:default -> Stream #1:0 (libx265)
  crop:default -> Stream #2:0 (libx265)
Press [q] to stop, [?] for help
x265 [info]: HEVC encoder version 4.1+1-1d117be
x265 [info]: build info [Mac OS X][clang 17.0.0][64 bit] 8bit+10bit+12bit
x265 [info]: using cpu capabilities: NEON Neon_DotProd Neon_I8MM
x265 [info]: Main profile, Level-2.1 (Main tier)
x265 [info]: Thread pool created using 18 threads
x265 [info]: Slices                              : 1
x265 [info]: frame threads / pool features       : 4 / wpp(6 rows)
x265 [warning]: Source height < 720p; disabling lookahead-slices
x265 [info]: Coding QT: max CU size, min CU size : 64 / 8
x265 [info]: Residual QT: max TU size, max depth : 32 / 1 inter / 1 intra
x265 [info]: ME / range / subpel / merge         : hex / 57 / 2 / 3
x265 [info]: Lookahead / bframes / badapt        : 20 / 4 / 2
x265 [info]: b-pyramid / weightp / weightb       : 1 / 1 / 0
x265 [info]: References / ref-limit  cu / depth  : 4 / off / on
x265 [info]: AQ: mode / str / qg-size / cu-tree  : 2 / 1.0 / 32 / 1
x265 [info]: Rate Control / qCompress            : CRF-25.0 / 0.60
x265 [info]: tools: rd=3 psy-rd=2.00 early-skip rskip mode=1 signhide tmvp
x265 [info]: tools: b-intra strong-intra-smoothing deblock sao
Output #0, matroska, to '/Users/adpena/Projects/pact/submissions/robust_current/archive/0/base.mkv':
  Metadata:
    SEGMENT         : b0c9d2329ad1606b|2018-07-27--06-03-57/10/video.hevc
    encoder         : Lavf62.12.100
  Stream #0:0: Video: hevc, yuv420p(tv, progressive), 432x324, q=2-31, 20 fps, 1k tbn
    Metadata:
      encoder         : Lavc62.28.100 libx265
    Side data:
      CPB properties: bitrate max/min/avg: 0/0/0 buffer size: 0 vbv_delay: N/A
x265 [info]: HEVC encoder version 4.1+1-1d117be
x265 [info]: build info [Mac OS X][clang 17.0.0][64 bit] 8bit+10bit+12bit
x265 [info]: using cpu capabilities: NEON Neon_DotProd Neon_I8MM
x265 [info]: Main profile, Level-2 (Main tier)
x265 [info]: Thread pool created using 18 threads
x265 [info]: Slices                              : 1
x265 [info]: frame threads / pool features       : 4 / wpp(3 rows)
x265 [warning]: Source height < 720p; disabling lookahead-slices
x265 [info]: Coding QT: max CU size, min CU size : 64 / 8
x265 [info]: Residual QT: max TU size, max depth : 32 / 1 inter / 1 intra
x265 [info]: ME / range / subpel / merge         : hex / 57 / 2 / 3
x265 [info]: Lookahead / bframes / badapt        : 20 / 4 / 2
x265 [info]: b-pyramid / weightp / weightb       : 1 / 1 / 0
x265 [info]: References / ref-limit  cu / depth  : 4 / off / on
x265 [info]: AQ: mode / str / qg-size / cu-tree  : 2 / 1.0 / 32 / 1
x265 [info]: Rate Control / qCompress            : CRF-23.0 / 0.60
x265 [info]: tools: rd=3 psy-rd=2.00 early-skip rskip mode=1 signhide tmvp
x265 [info]: tools: b-intra strong-intra-smoothing deblock sao
Output #1, matroska, to '/Users/adpena/Projects/pact/submissions/robust_current/archive/0/roi.mkv':
  Metadata:
    SEGMENT         : b0c9d2329ad1606b|2018-07-27--06-03-57/10/video.hevc
    encoder         : Lavf62.12.100
  Stream #1:0: Video: hevc, yuv420p(tv, progressive), 292x168, q=2-31, 20 fps, 1k tbn
    Metadata:
      encoder         : Lavc62.28.100 libx265
    Side data:
      CPB properties: bitrate max/min/avg: 0/0/0 buffer size: 0 vbv_delay: N/A
x265 [info]: HEVC encoder version 4.1+1-1d117be
x265 [info]: build info [Mac OS X][clang 17.0.0][64 bit] 8bit+10bit+12bit
x265 [info]: using cpu capabilities: NEON Neon_DotProd Neon_I8MM
x265 [info]: Main profile, Level-1 (Main tier)
x265 [warning]: Too few rows/columns, --wpp disabled
x265 [info]: Thread pool created using 18 threads
x265 [info]: Slices                              : 1
x265 [info]: frame threads / pool features       : 2 / none
x265 [warning]: Source height < 720p; disabling lookahead-slices
x265 [info]: Coding QT: max CU size, min CU size : 64 / 8
x265 [info]: Residual QT: max TU size, max depth : 32 / 1 inter / 1 intra
x265 [info]: ME / range / subpel / merge         : hex / 57 / 2 / 3
x265 [info]: Lookahead / bframes / badapt        : 20 / 4 / 2
x265 [info]: b-pyramid / weightp / weightb       : 1 / 1 / 0
x265 [info]: References / ref-limit  cu / depth  : 4 / off / on
x265 [info]: AQ: mode / str / qg-size / cu-tree  : 2 / 1.0 / 32 / 1
x265 [info]: Rate Control / qCompress            : CRF-23.0 / 0.60
x265 [info]: tools: rd=3 psy-rd=2.00 early-skip rskip mode=1 signhide tmvp
x265 [info]: tools: b-intra strong-intra-smoothing deblock sao
Output #2, matroska, to '/Users/adpena/Projects/pact/submissions/robust_current/archive/0/roi2.mkv':
  Metadata:
    SEGMENT         : b0c9d2329ad1606b|2018-07-27--06-03-57/10/video.hevc
    encoder         : Lavf62.12.100
  Stream #2:0: Video: hevc, yuv420p(tv, progressive), 76x180, q=2-31, 20 fps, 1k tbn
    Metadata:
      encoder         : Lavc62.28.100 libx265
    Side data:
      CPB properties: bitrate max/min/avg: 0/0/0 buffer size: 0 vbv_delay: N/A
frame=   57 fps=0.0 q=29.8 q=28.6 q=24.1 size=      41KiB time=00:00:02.70 bitrate= 123.6kbits/s speed=5.32x elapsed=0:00:00.50    frame=  121 fps=119 q=29.4 q=25.2 q=23.9 size=      76KiB time=00:00:05.95 bitrate= 104.3kbits/s speed=5.84x elapsed=0:00:01.01    frame=  185 fps=122 q=30.1 q=23.6 q=28.7 size=     117KiB time=00:00:09.15 bitrate= 104.6kbits/s speed=6.01x elapsed=0:00:01.52    frame=  237 fps=117 q=28.2 q=27.6 q=23.8 size=     163KiB time=00:00:11.80 bitrate= 113.3kbits/s speed=5.81x elapsed=0:00:02.02    frame=  297 fps=117 q=29.8 q=23.3 q=25.6 size=     256KiB time=00:00:14.80 bitrate= 141.7kbits/s speed=5.85x elapsed=0:00:02.53    frame=  353 fps=116 q=27.9 q=28.4 q=23.7 size=     256KiB time=00:00:17.55 bitrate= 119.5kbits/s speed=5.77x elapsed=0:00:03.04    frame=  417 fps=118 q=27.8 q=25.1 q=25.3 size=     256KiB time=00:00:20.75 bitrate= 101.1kbits/s speed=5.85x elapsed=0:00:03.54    frame=  469 fps=116 q=28.0 q=27.6 q=26.5 size=     256KiB time=00:00:23.35 bitrate=  89.8kbits/s speed=5.76x elapsed=0:00:04.05    frame=  538 fps=118 q=29.8 q=28.1 q=23.9 size=     256KiB time=00:00:26.80 bitrate=  78.3kbits/s speed=5.88x elapsed=0:00:04.55    frame=  602 fps=119 q=29.8 q=27.3 q=27.2 size=     256KiB time=00:00:29.90 bitrate=  70.1kbits/s speed=5.91x elapsed=0:00:05.06    frame=  653 fps=117 q=30.0 q=25.7 q=27.8 size=     256KiB time=00:00:32.40 bitrate=  64.7kbits/s speed=5.82x elapsed=0:00:05.56    frame=  695 fps=114 q=27.3 q=28.1 q=25.4 size=     512KiB time=00:00:34.65 bitrate= 121.0kbits/s speed=5.71x elapsed=0:00:06.07    frame=  761 fps=116 q=28.2 q=28.6 q=27.6 size=     512KiB time=00:00:37.90 bitrate= 110.7kbits/s speed=5.76x elapsed=0:00:06.57    frame=  826 fps=117 q=25.8 q=25.6 q=23.5 size=     512KiB time=00:00:41.20 bitrate= 101.8kbits/s speed=5.82x elapsed=0:00:07.08    frame=  876 fps=115 q=27.7 q=28.6 q=28.4 size=     512KiB time=00:00:43.60 bitrate=  96.2kbits/s speed=5.75x elapsed=0:00:07.58    frame=  924 fps=114 q=25.8 q=26.2 q=28.2 size=     512KiB time=00:00:46.05 bitrate=  91.1kbits/s speed=5.69x elapsed=0:00:08.09    frame=  979 fps=114 q=28.2 q=29.1 q=27.0 size=     768KiB time=00:00:48.85 bitrate= 128.8kbits/s speed=5.68x elapsed=0:00:08.59    frame= 1033 fps=114 q=25.7 q=23.6 q=26.8 size=     768KiB time=00:00:51.55 bitrate= 122.0kbits/s speed=5.67x elapsed=0:00:09.09    frame= 1085 fps=113 q=30.3 q=25.4 q=27.0 size=     768KiB time=00:00:54.15 bitrate= 116.2kbits/s speed=5.64x elapsed=0:00:09.60    frame= 1146 fps=113 q=29.6 q=27.8 q=27.6 size=     768KiB time=00:00:57.25 bitrate= 109.9kbits/s speed=5.66x elapsed=0:00:10.11    [out#0/matroska @ 0x866c10840] video:1019KiB audio:0KiB subtitle:0KiB other streams:0KiB global headers:2KiB muxing overhead: 1.184346%
[out#1/matroska @ 0x866c10540] video:760KiB audio:0KiB subtitle:0KiB other streams:0KiB global headers:2KiB muxing overhead: 1.586727%
[out#2/matroska @ 0x866c11200] video:208KiB audio:0KiB subtitle:0KiB other streams:0KiB global headers:2KiB muxing overhead: 5.483524%
frame= 1200 fps=114 q=30.0 Lq=27.3 q=27.0 size=    1031KiB time=00:00:59.90 bitrate= 141.0kbits/s speed= 5.7x elapsed=0:00:10.50    
x265 [info]: frame I:     25, Avg QP:24.76  kb/s: 713.11  
x265 [info]: frame P:    235, Avg QP:25.82  kb/s: 303.43  
x265 [info]: frame B:    940, Avg QP:29.23  kb/s: 81.91   
x265 [info]: Weighted P-Frames: Y:3.4% UV:3.4%

encoded 1200 frames in 10.44s (114.95 fps), 138.44 kb/s, Avg QP:28.47
x265 [info]: frame I:     25, Avg QP:22.19  kb/s: 417.50  
x265 [info]: frame P:    266, Avg QP:23.44  kb/s: 213.33  
x265 [info]: frame B:    909, Avg QP:27.19  kb/s: 62.27   
x265 [info]: Weighted P-Frames: Y:6.4% UV:4.1%

encoded 1200 frames in 10.43s (115.02 fps), 103.15 kb/s, Avg QP:26.25
x265 [info]: frame I:     25, Avg QP:22.72  kb/s: 121.70  
x265 [info]: frame P:    256, Avg QP:23.86  kb/s: 57.86   
x265 [info]: frame B:    919, Avg QP:26.97  kb/s: 16.81   
x265 [info]: Weighted P-Frames: Y:16.0% UV:10.5%

encoded 1200 frames in 10.44s (114.99 fps), 27.75 kb/s, Avg QP:26.22
  adding: 0/ (stored 0%)
  adding: 0/roi2.mkv (deflated 4%)
  adding: 0/base.mkv (deflated 0%)
  adding: 0/roi.mkv (deflated 1%)

Wrote /Users/adpena/Projects/pact/submissions/robust_current/archive.zip
Archive:  /Users/adpena/Projects/pact/workspace/upstream/comma_video_compression_challenge/submissions/robust_current/archive.zip
   creating: /Users/adpena/Projects/pact/workspace/upstream/comma_video_compression_challenge/submissions/robust_current/archive/0
  inflating: /Users/adpena/Projects/pact/workspace/upstream/comma_video_compression_challenge/submissions/robust_current/archive/0/roi2.mkv  
  inflating: /Users/adpena/Projects/pact/workspace/upstream/comma_video_compression_challenge/submissions/robust_current/archive/0/base.mkv  
  inflating: /Users/adpena/Projects/pact/workspace/upstream/comma_video_compression_challenge/submissions/robust_current/archive/0/roi.mkv  
Inflating ROI two-pass+aux /Users/adpena/Projects/pact/workspace/upstream/comma_video_compression_challenge/submissions/robust_current/archive/0/base.mkv + /Users/adpena/Projects/pact/workspace/upstream/comma_video_compression_challenge/submissions/robust_current/archive/0/roi.mkv + /Users/adpena/Projects/pact/workspace/upstream/comma_video_compression_challenge/submissions/robust_current/archive/0/roi2.mkv -> /Users/adpena/Projects/pact/workspace/upstream/comma_video_compression_challenge/submissions/robust_current/inflated/0.raw
ffmpeg version 8.1 Copyright (c) 2000-2026 the FFmpeg developers
  built with Apple clang version 17.0.0 (clang-1700.6.4.2)
  configuration: --prefix=/opt/homebrew/Cellar/ffmpeg/8.1 --enable-shared --enable-pthreads --enable-version3 --cc=clang --host-cflags= --host-ldflags= --enable-ffplay --enable-gpl --enable-libsvtav1 --enable-libopus --enable-libx264 --enable-libmp3lame --enable-libdav1d --enable-libvpx --enable-libx265 --enable-openssl --enable-videotoolbox --enable-audiotoolbox --enable-neon
  libavutil      60. 26.100 / 60. 26.100
  libavcodec     62. 28.100 / 62. 28.100
  libavformat    62. 12.100 / 62. 12.100
  libavdevice    62.  3.100 / 62.  3.100
  libavfilter    11. 14.100 / 11. 14.100
  libswscale      9.  5.100 /  9.  5.100
  libswresample   6.  3.100 /  6.  3.100
Input #0, matroska,webm, from '/Users/adpena/Projects/pact/workspace/upstream/comma_video_compression_challenge/submissions/robust_current/archive/0/base.mkv':
  Metadata:
    SEGMENT         : b0c9d2329ad1606b|2018-07-27--06-03-57/10/video.hevc
    ENCODER         : Lavf62.12.100
  Duration: 00:01:00.00, start: 0.000000, bitrate: 140 kb/s
  Stream #0:0: Video: hevc (Main), yuv420p(tv, progressive), 432x324, 20 fps, 20 tbr, 1k tbn
    Metadata:
      ENCODER         : Lavc62.28.100 libx265
      DURATION        : 00:01:00.000000000
Input #1, matroska,webm, from '/Users/adpena/Projects/pact/workspace/upstream/comma_video_compression_challenge/submissions/robust_current/archive/0/roi.mkv':
  Metadata:
    SEGMENT         : b0c9d2329ad1606b|2018-07-27--06-03-57/10/video.hevc
    ENCODER         : Lavf62.12.100
  Duration: 00:01:00.00, start: 0.000000, bitrate: 105 kb/s
  Stream #1:0: Video: hevc (Main), yuv420p(tv, progressive), 292x168, 20 fps, 20 tbr, 1k tbn
    Metadata:
      ENCODER         : Lavc62.28.100 libx265
      DURATION        : 00:01:00.000000000
Input #2, matroska,webm, from '/Users/adpena/Projects/pact/workspace/upstream/comma_video_compression_challenge/submissions/robust_current/archive/0/roi2.mkv':
  Metadata:
    SEGMENT         : b0c9d2329ad1606b|2018-07-27--06-03-57/10/video.hevc
    ENCODER         : Lavf62.12.100
  Duration: 00:01:00.00, start: 0.000000, bitrate: 29 kb/s
  Stream #2:0: Video: hevc (Main), yuv420p(tv, progressive), 76x180, 20 fps, 20 tbr, 1k tbn
    Metadata:
      ENCODER         : Lavc62.28.100 libx265
      DURATION        : 00:01:00.000000000
Stream mapping:
  Stream #0:0 (hevc) -> scale:default
  Stream #1:0 (hevc) -> scale:default
  Stream #2:0 (hevc) -> scale:default
  format:default -> Stream #0:0 (rawvideo)
Press [q] to stop, [?] for help
[swscaler @ 0xc60f94000] No accelerated colorspace conversion found from yuva420p to rgb24.
[swscaler @ 0xc60f94000] [swscaler @ 0xc60fa4000] No accelerated colorspace conversion found from yuva420p to rgb24.
[swscaler @ 0xc60f94000] [swscaler @ 0xc60fb4000] No accelerated colorspace conversion found from yuva420p to rgb24.
[swscaler @ 0xc60f94000] [swscaler @ 0xc60fc4000] No accelerated colorspace conversion found from yuva420p to rgb24.
[swscaler @ 0xc60f94000] [swscaler @ 0xc60fd4000] No accelerated colorspace conversion found from yuva420p to rgb24.
[swscaler @ 0xc60f94000] [swscaler @ 0xc60fe4000] No accelerated colorspace conversion found from yuva420p to rgb24.
[swscaler @ 0xc60f94000] [swscaler @ 0xc614fc000] No accelerated colorspace conversion found from yuva420p to rgb24.
[swscaler @ 0xc60f94000] [swscaler @ 0xc6150c000] No accelerated colorspace conversion found from yuva420p to rgb24.
[swscaler @ 0xc60f94000] [swscaler @ 0xc6151c000] No accelerated colorspace conversion found from yuva420p to rgb24.
[swscaler @ 0xc60f94000] [swscaler @ 0xc6152c000] No accelerated colorspace conversion found from yuva420p to rgb24.
[swscaler @ 0xc60f94000] [swscaler @ 0xc6153c000] No accelerated colorspace conversion found from yuva420p to rgb24.
[swscaler @ 0xc60f94000] [swscaler @ 0xc6154c000] No accelerated colorspace conversion found from yuva420p to rgb24.
[swscaler @ 0xc60f94000] [swscaler @ 0xc6155c000] No accelerated colorspace conversion found from yuva420p to rgb24.
[swscaler @ 0xc60f94000] [swscaler @ 0xc6156c000] No accelerated colorspace conversion found from yuva420p to rgb24.
[swscaler @ 0xc60f94000] [swscaler @ 0xc6157c000] No accelerated colorspace conversion found from yuva420p to rgb24.
[swscaler @ 0xc60f94000] [swscaler @ 0xc6158c000] No accelerated colorspace conversion found from yuva420p to rgb24.
[swscaler @ 0xc60f94000] [swscaler @ 0xc6159c000] No accelerated colorspace conversion found from yuva420p to rgb24.
Output #0, rawvideo, to '/Users/adpena/Projects/pact/workspace/upstream/comma_video_compression_challenge/submissions/robust_current/inflated/0.raw':
  Metadata:
    SEGMENT         : b0c9d2329ad1606b|2018-07-27--06-03-57/10/video.hevc
    encoder         : Lavf62.12.100
  Stream #0:0: Video: rawvideo (RGB[24] / 0x18424752), rgb24(pc, gbr/unknown/unknown, progressive), 1164x874, q=2-31, 488321 kb/s, 20 fps, 20 tbn
    Metadata:
      encoder         : Lavc62.28.100 rawvideo
frame=   54 fps=0.0 q=-0.0 size=  157952KiB time=00:00:02.70 bitrate=479238.1kbits/s speed=5.34x elapsed=0:00:00.50    frame=   78 fps= 77 q=-0.0 size=  229376KiB time=00:00:03.90 bitrate=481807.2kbits/s speed=3.86x elapsed=0:00:01.01    frame=  107 fps= 71 q=-0.0 size=  315904KiB time=00:00:05.35 bitrate=483716.9kbits/s speed=3.53x elapsed=0:00:01.51    frame=  147 fps= 73 q=-0.0 size=  434944KiB time=00:00:07.35 bitrate=484770.2kbits/s speed=3.64x elapsed=0:00:02.01    frame=  170 fps= 67 q=-0.0 size=  503552KiB time=00:00:08.50 bitrate=485305.6kbits/s speed=3.37x elapsed=0:00:02.52    frame=  194 fps= 64 q=-0.0 size=  574976KiB time=00:00:09.70 bitrate=485588.0kbits/s speed= 3.2x elapsed=0:00:03.02    frame=  217 fps= 61 q=-0.0 size=  643584KiB time=00:00:10.85 bitrate=485920.7kbits/s speed=3.07x elapsed=0:00:03.53    frame=  238 fps= 59 q=-0.0 size=  706304KiB time=00:00:11.90 bitrate=486222.0kbits/s speed=2.95x elapsed=0:00:04.03    frame=  258 fps= 57 q=-0.0 size=  765952KiB time=00:00:12.90 bitrate=486409.2kbits/s speed=2.84x elapsed=0:00:04.53    frame=  279 fps= 55 q=-0.0 size=  828416KiB time=00:00:13.95 bitrate=486479.1kbits/s speed=2.77x elapsed=0:00:05.03    frame=  302 fps= 54 q=-0.0 size=  897024KiB time=00:00:15.10 bitrate=486650.4kbits/s speed=2.72x elapsed=0:00:05.54    frame=  325 fps= 54 q=-0.0 size=  965632KiB time=00:00:16.25 bitrate=486797.4kbits/s speed=2.69x elapsed=0:00:06.05    frame=  345 fps= 53 q=-0.0 size= 1025280KiB time=00:00:17.25 bitrate=486904.0kbits/s speed=2.63x elapsed=0:00:06.55    frame=  367 fps= 52 q=-0.0 size= 1090816KiB time=00:00:18.35 bitrate=486973.6kbits/s speed= 2.6x elapsed=0:00:07.06    frame=  386 fps= 51 q=-0.0 size= 1147392KiB time=00:00:19.30 bitrate=487017.4kbits/s speed=2.55x elapsed=0:00:07.56    frame=  410 fps= 51 q=-0.0 size= 1218816KiB time=00:00:20.50 bitrate=487050.8kbits/s speed=2.54x elapsed=0:00:08.07    frame=  432 fps= 50 q=-0.0 size= 1284352KiB time=00:00:21.60 bitrate=487102.4kbits/s speed=2.52x elapsed=0:00:08.58    frame=  453 fps= 50 q=-0.0 size= 1347072KiB time=00:00:22.65 bitrate=487205.9kbits/s speed=2.49x elapsed=0:00:09.08    frame=  475 fps= 50 q=-0.0 size= 1412608KiB time=00:00:23.75 bitrate=487245.7kbits/s speed=2.48x elapsed=0:00:09.58    frame=  501 fps= 50 q=-0.0 size= 1490176KiB time=00:00:25.05 bitrate=487326.2kbits/s speed=2.48x elapsed=0:00:10.09    frame=  521 fps= 49 q=-0.0 size= 1549824KiB time=00:00:26.05 bitrate=487376.5kbits/s speed=2.46x elapsed=0:00:10.60    frame=  540 fps= 49 q=-0.0 size= 1606400KiB time=00:00:27.00 bitrate=487393.7kbits/s speed=2.43x elapsed=0:00:11.10    frame=  562 fps= 48 q=-0.0 size= 1671936KiB time=00:00:28.10 bitrate=487419.9kbits/s speed=2.42x elapsed=0:00:11.61    frame=  588 fps= 49 q=-0.0 size= 1749504KiB time=00:00:29.40 bitrate=487480.8kbits/s speed=2.43x elapsed=0:00:12.12    frame=  611 fps= 48 q=-0.0 size= 1817856KiB time=00:00:30.55 bitrate=487459.1kbits/s speed=2.42x elapsed=0:00:12.62    frame=  636 fps= 48 q=-0.0 size= 1892352KiB time=00:00:31.80 bitrate=487488.9kbits/s speed=2.42x elapsed=0:00:13.13    frame=  662 fps= 49 q=-0.0 size= 1969920KiB time=00:00:33.10 bitrate=487540.3kbits/s speed=2.43x elapsed=0:00:13.64    frame=  684 fps= 48 q=-0.0 size= 2035456KiB time=00:00:34.20 bitrate=487557.2kbits/s speed=2.42x elapsed=0:00:14.14    frame=  707 fps= 48 q=-0.0 size= 2104064KiB time=00:00:35.35 bitrate=487595.3kbits/s speed=2.41x elapsed=0:00:14.65    frame=  731 fps= 48 q=-0.0 size= 2175744KiB time=00:00:36.55 bitrate=487652.4kbits/s speed=2.41x elapsed=0:00:15.16    frame=  752 fps= 48 q=-0.0 size= 2238208KiB time=00:00:37.60 bitrate=487643.6kbits/s speed= 2.4x elapsed=0:00:15.66    frame=  876 fps= 54 q=-0.0 size= 2607872KiB time=00:00:43.80 bitrate=487755.4kbits/s speed=2.71x elapsed=0:00:16.17    frame=  923 fps= 55 q=-0.0 size= 2747904KiB time=00:00:46.15 bitrate=487775.3kbits/s speed=2.77x elapsed=0:00:16.67    frame=  944 fps= 55 q=-0.0 size= 2810368KiB time=00:00:47.20 bitrate=487765.6kbits/s speed=2.75x elapsed=0:00:17.18    frame=  965 fps= 55 q=-0.0 size= 2873088KiB time=00:00:48.25 bitrate=487799.7kbits/s speed=2.73x elapsed=0:00:17.68    frame=  986 fps= 54 q=-0.0 size= 2935552KiB time=00:00:49.30 bitrate=487789.9kbits/s speed=2.71x elapsed=0:00:18.18    frame= 1007 fps= 54 q=-0.0 size= 2998272KiB time=00:00:50.35 bitrate=487822.1kbits/s speed=2.69x elapsed=0:00:18.69    frame= 1027 fps= 53 q=-0.0 size= 3057920KiB time=00:00:51.35 bitrate=487838.0kbits/s speed=2.67x elapsed=0:00:19.20    frame= 1049 fps= 53 q=-0.0 size= 3123456KiB time=00:00:52.45 bitrate=487842.7kbits/s speed=2.66x elapsed=0:00:19.70    frame= 1067 fps= 53 q=-0.0 size= 3176960KiB time=00:00:53.35 bitrate=487828.6kbits/s speed=2.64x elapsed=0:00:20.20    frame= 1086 fps= 52 q=-0.0 size= 3233792KiB time=00:00:54.30 bitrate=487867.8kbits/s speed=2.62x elapsed=0:00:20.71    frame= 1108 fps= 52 q=-0.0 size= 3299328KiB time=00:00:55.40 bitrate=487871.8kbits/s speed=2.61x elapsed=0:00:21.21    frame= 1130 fps= 52 q=-0.0 size= 3364864KiB time=00:00:56.50 bitrate=487875.5kbits/s speed= 2.6x elapsed=0:00:21.72    frame= 1153 fps= 52 q=-0.0 size= 3433472KiB time=00:00:57.65 bitrate=487892.5kbits/s speed=2.59x elapsed=0:00:22.23    frame= 1174 fps= 52 q=-0.0 size= 3495936KiB time=00:00:58.70 bitrate=487882.6kbits/s speed=2.58x elapsed=0:00:22.73    frame= 1195 fps= 51 q=-0.0 size= 3558656KiB time=00:00:59.75 bitrate=487908.1kbits/s speed=2.57x elapsed=0:00:23.24    [out#0/rawvideo @ 0xc5f010540] video:3576572KiB audio:0KiB subtitle:0KiB other streams:0KiB global headers:0KiB muxing overhead: 0.000000%
frame= 1200 fps= 52 q=-0.0 Lsize= 3576572KiB time=00:01:00.00 bitrate=488321.3kbits/s speed=2.58x elapsed=0:00:23.29    
All videos inflated to /Users/adpena/Projects/pact/workspace/upstream/comma_video_compression_challenge/submissions/robust_current/inflated
=== Evaluation config ===
  batch_size: 16
  device: cpu
  num_threads: 2
  prefetch_queue_depth: 4
  report: /Users/adpena/Projects/pact/workspace/upstream/comma_video_compression_challenge/submissions/robust_current/report.txt
  seed: 1234
  submission_dir: /Users/adpena/Projects/pact/workspace/upstream/comma_video_compression_challenge/submissions/robust_current
  uncompressed_dir: /Users/adpena/Projects/pact/workspace/upstream/comma_video_compression_challenge/videos
  video_names_file: /Users/adpena/Projects/pact/workspace/upstream/comma_video_compression_challenge/public_test_video_names.txt
AVVideoDataset on rank 0 with 1 files.
TensorVideoDataset on rank 0 with 1 files.
0it [00:00, ?it/s]/Users/adpena/Projects/pact/workspace/upstream/comma_video_compression_challenge/frame_utils.py:232: UserWarning: The given NumPy array is not writable, and PyTorch does not support non-writable tensors. This means writing to this tensor will result in undefined behavior. You may want to copy the array to protect its data or make it writable before converting it to a tensor. This type of warning will be suppressed for the rest of this program. (Triggered internally at /Users/runner/work/pytorch/pytorch/pytorch/torch/csrc/utils/tensor_numpy.cpp:219.)
  frames = torch.from_numpy(mm)  # (N, H, W, C), shares mmap memory
1it [00:35, 35.97s/it]2it [01:09, 34.76s/it]3it [01:44, 34.59s/it]4it [02:20, 35.05s/it]5it [02:54, 34.94s/it]6it [03:29, 34.77s/it]7it [04:05, 35.35s/it]8it [04:41, 35.38s/it]9it [05:16, 35.49s/it]10it [05:51, 35.18s/it]11it [06:26, 35.28s/it]12it [07:01, 35.04s/it]13it [07:35, 34.79s/it]14it [08:10, 34.90s/it]15it [08:45, 34.88s/it]16it [09:19, 34.54s/it]17it [09:56, 35.39s/it]18it [10:32, 35.58s/it]19it [11:10, 36.22s/it]20it [11:48, 36.62s/it]21it [12:21, 35.81s/it]22it [12:56, 35.47s/it]23it [13:32, 35.58s/it]24it [14:06, 35.27s/it]25it [14:41, 35.07s/it]26it [15:15, 34.70s/it]27it [15:47, 34.02s/it]28it [16:20, 33.70s/it]29it [16:55, 33.90s/it]30it [17:30, 34.21s/it]31it [18:04, 34.24s/it]32it [18:40, 34.79s/it]33it [19:17, 35.37s/it]34it [19:49, 34.50s/it]35it [20:22, 34.10s/it]36it [20:55, 33.62s/it]37it [21:28, 33.45s/it]38it [22:51, 48.30s/it]38it [22:51, 36.09s/it]
=== Evaluation results over 600 samples ===
  Average PoseNet Distortion: 0.54364634
  Average SegNet Distortion: 0.01311921
  Submission file size: 2,053,359 bytes
  Original uncompressed size: 37,545,489 bytes
  Compression Rate: 0.05468990
  Final score: 100*segnet_dist + √(10*posenet_dist) + 25*rate = 5.01
Evaluation complete. Report saved to /Users/adpena/Projects/pact/workspace/upstream/comma_video_compression_challenge/submissions/robust_current/report.txt
